<?xml version="1.0" encoding="UTF-8"?>
<svg width="500" height="500" version="1.1" xmlns="http://www.w3.org/2000/svg" xmlns:cc="http://creativecommons.org/ns#">
 <g stroke="#000" stroke-width="5">
  <path d="m43.31 444.24 398.56-398.56v398.56z" fill="#fdf2d1"/>
  <path d="m392.84 443.27v-47.857h48.35" fill="none"/>
 </g>
 <g fill="#949494">
  <path d="m406.09 30.27 17.946-6.4732-6.5179 17.902-2.7232-8.5714-8.7054-2.8572z"/>
  <path d="m427.1 463.74 17.267 8.1128-17.267 8.0496 4.1353-7.9865z"/>
  <path d="m57.66 463.74-17.267 8.1128 17.267 8.0496-4.1353-7.9865z"/>
  <path d="m478.03 59.7-8.1128-17.267-8.0496 17.267 7.9865-4.1353z"/>
  <path d="m478.03 429.15-8.1128 17.267-8.0496-17.267 7.9865 4.1353z"/>
  <path d="m39.45 419.57-17.946 6.4732 6.5179-17.902 2.7232 8.5714 8.7054 2.8572z"/>
 </g>
 <g stroke="#949494">
  <g stroke-width="4">
   <path d="m266.94 180.95 147.85-148.01" fill="none"/>
   <path d="m286.41 471.92h146.03"/>
   <path d="m198.36 471.92h-146.03"/>
   <path d="m178.6 268.89-147.88 147.85"/>
   <path d="m469.85 288.45v146.03"/>
   <path d="m469.85 200.4v-146.03"/>
  </g>
  <g stroke-width="1.5">
   <path d="m445.1 491.4v-38.951"/>
   <path d="m39.67 491.4v-38.951"/>
   <path d="m438.46 37.16-27.542-27.542"/>
   <path d="m7.08 412.69 27.542 27.542"/>
   <path d="m450.37 41.71h38.951"/>
  </g>
  <path d="m450.37 447.14h38.951"/>
 </g>
 <path d="m244.45 489.17h-4.2188v-26.883q-1.5234 1.4531-4.0078 2.9062-2.4609 1.4531-4.4297 2.1797v-4.0781q3.5391-1.6641 6.1875-4.0312 2.6484-2.3672 3.75-4.5938h2.7188z"/>
 <path d="m476.18 258.33h-4.2188v-26.883q-1.5234 1.4531-4.0078 2.9062-2.4609 1.4531-4.4297 2.1797v-4.0781q3.5391-1.6641 6.1875-4.0312 2.6484-2.3672 3.75-4.5938h2.7188z"/>
 <path d="m198.54 194.86-6.1875 41.955-9.9297-22.324-5.9668 4.7852 1.25 1.5605 3.9434-3.1621 11.678 26.248 6.9394-47.062h37.127v-2zm29.766 38.034v4.0547h-22.711q-0.0469-1.5234 0.49219-2.9297 0.86719-2.3203 2.7656-4.5703 1.9219-2.25 5.5312-5.2031 5.6016-4.5938 7.5703-7.2656 1.9688-2.6953 1.9688-5.0859 0-2.5078-1.8047-4.2188-1.7812-1.7344-4.6641-1.7344-3.0469 0-4.875 1.8281t-1.8516 5.0625l-4.3359-0.44531q0.44531-4.8516 3.3516-7.3828 2.9062-2.5547 7.8047-2.5547 4.9453 0 7.8281 2.7422t2.8828 6.7969q0 2.0625-0.84375 4.0547t-2.8125 4.1953q-1.9453 2.2031-6.4922 6.0469-3.7969 3.1875-4.875 4.3359-1.0781 1.125-1.7812 2.2734z"/>
</svg>
